<svg xmlns="http://www.w3.org/2000/svg" xmlns:xlink="http://www.w3.org/1999/xlink" width="50" zoomAndPan="magnify" viewBox="0 0 37.5 37.499999" height="50" preserveAspectRatio="xMidYMid meet" version="1.0"><defs><clipPath id="c797ac4a92"><path d="M 14 4.398438 L 24 4.398438 L 24 14 L 14 14 Z M 14 4.398438 " clip-rule="nonzero"/></clipPath><clipPath id="0ebc3a04b8"><path d="M 6.839844 14 L 30.839844 14 L 30.839844 32.898438 L 6.839844 32.898438 Z M 6.839844 14 " clip-rule="nonzero"/></clipPath></defs><g clip-path="url(#c797ac4a92)"><path fill="#000000" d="M 23.246094 8.792969 C 23.246094 9.078125 23.21875 9.359375 23.164062 9.640625 C 23.105469 9.917969 23.023438 10.191406 22.910156 10.453125 C 22.800781 10.714844 22.664062 10.964844 22.503906 11.203125 C 22.34375 11.441406 22.164062 11.660156 21.957031 11.859375 C 21.753906 12.0625 21.53125 12.242188 21.289062 12.398438 C 21.050781 12.558594 20.796875 12.691406 20.53125 12.800781 C 20.261719 12.910156 19.988281 12.992188 19.703125 13.046875 C 19.421875 13.101562 19.132812 13.128906 18.84375 13.128906 C 18.554688 13.128906 18.269531 13.101562 17.984375 13.046875 C 17.703125 12.992188 17.425781 12.910156 17.160156 12.800781 C 16.894531 12.691406 16.640625 12.558594 16.398438 12.398438 C 16.160156 12.242188 15.9375 12.0625 15.730469 11.859375 C 15.527344 11.660156 15.34375 11.441406 15.183594 11.203125 C 15.023438 10.964844 14.886719 10.714844 14.777344 10.453125 C 14.667969 10.191406 14.582031 9.917969 14.527344 9.640625 C 14.472656 9.359375 14.441406 9.078125 14.441406 8.792969 C 14.441406 8.507812 14.472656 8.226562 14.527344 7.945312 C 14.582031 7.667969 14.667969 7.398438 14.777344 7.132812 C 14.886719 6.871094 15.023438 6.621094 15.183594 6.382812 C 15.34375 6.148438 15.527344 5.929688 15.730469 5.726562 C 15.9375 5.523438 16.160156 5.34375 16.398438 5.1875 C 16.640625 5.027344 16.894531 4.894531 17.160156 4.785156 C 17.425781 4.675781 17.703125 4.59375 17.984375 4.539062 C 18.269531 4.484375 18.554688 4.457031 18.84375 4.457031 C 19.132812 4.457031 19.421875 4.484375 19.703125 4.539062 C 19.988281 4.59375 20.261719 4.675781 20.53125 4.785156 C 20.796875 4.894531 21.050781 5.027344 21.289062 5.1875 C 21.53125 5.34375 21.753906 5.523438 21.957031 5.726562 C 22.164062 5.929688 22.34375 6.148438 22.503906 6.382812 C 22.664062 6.621094 22.800781 6.871094 22.910156 7.132812 C 23.023438 7.398438 23.105469 7.667969 23.164062 7.945312 C 23.21875 8.226562 23.246094 8.507812 23.246094 8.792969 Z M 23.246094 8.792969 " fill-opacity="1" fill-rule="nonzero"/></g><g clip-path="url(#0ebc3a04b8)"><path fill="#000000" d="M 29.605469 29.480469 L 29.605469 29.484375 L 29.613281 29.453125 L 30.808594 24.160156 L 30.804688 24.160156 C 30.832031 24.035156 30.851562 23.90625 30.851562 23.773438 C 30.851562 23.523438 30.796875 23.285156 30.699219 23.070312 L 30.703125 23.070312 L 27.582031 15.976562 C 27.148438 14.996094 26.160156 14.3125 25.011719 14.3125 L 12.679688 14.3125 C 11.527344 14.3125 10.539062 14.996094 10.109375 15.976562 L 6.988281 23.070312 C 6.894531 23.285156 6.839844 23.523438 6.839844 23.773438 C 6.839844 23.90625 6.855469 24.035156 6.886719 24.160156 L 6.882812 24.160156 L 8.078125 29.453125 L 8.082031 29.484375 L 8.085938 29.480469 C 8.1875 29.941406 8.476562 30.332031 8.863281 30.578125 L 8.441406 30.871094 C 6.839844 32.054688 8.039062 32.84375 8.839844 32.84375 L 28.847656 32.84375 C 29.648438 32.84375 30.851562 32.054688 29.25 30.871094 L 28.828125 30.582031 C 29.214844 30.332031 29.5 29.941406 29.605469 29.480469 Z M 22.285156 24.1875 C 22.910156 23.679688 23.882812 23.824219 23.882812 23.824219 C 23.882812 23.824219 23.84375 24.792969 23.21875 25.300781 C 22.59375 25.808594 21.621094 25.664062 21.621094 25.664062 C 21.621094 25.664062 21.660156 24.695312 22.285156 24.1875 Z M 26.09375 28.707031 C 25.140625 28.109375 24.605469 28.113281 24.046875 28.113281 L 23.976562 28.113281 C 23.988281 28.203125 23.996094 28.296875 23.996094 28.390625 C 23.996094 29.683594 22.933594 30.730469 21.621094 30.730469 C 20.308594 30.730469 19.246094 29.683594 19.246094 28.390625 C 19.246094 28.296875 19.253906 28.203125 19.261719 28.113281 L 18.601562 28.113281 L 18.292969 30.609375 L 14.921875 30.609375 L 14.613281 28.113281 L 13.640625 28.113281 C 13.085938 28.113281 12.546875 28.109375 11.597656 28.707031 L 10.523438 23.949219 L 12.335938 19.832031 L 13.242188 19.832031 L 13.242188 27.324219 L 14.519531 27.324219 L 13.972656 22.90625 L 19.246094 22.90625 L 18.699219 27.324219 L 19.507812 27.324219 C 19.902344 26.570312 20.699219 26.050781 21.621094 26.050781 C 22.542969 26.050781 23.339844 26.570312 23.734375 27.324219 L 24.449219 27.324219 L 24.449219 19.832031 L 25.355469 19.832031 L 27.164062 23.949219 Z M 26.09375 28.707031 " fill-opacity="1" fill-rule="nonzero"/></g></svg>