<svg xmlns="http://www.w3.org/2000/svg" xmlns:xlink="http://www.w3.org/1999/xlink" width="50" zoomAndPan="magnify" viewBox="0 0 37.5 37.499999" height="50" preserveAspectRatio="xMidYMid meet" version="1.0"><defs><clipPath id="f17b41724f"><path d="M 10 5.078125 L 27.933594 5.078125 L 27.933594 32.078125 L 10 32.078125 Z M 10 5.078125 " clip-rule="nonzero"/></clipPath></defs><g clip-path="url(#f17b41724f)"><path fill="#000000" d="M 18.976562 5.078125 C 14.03125 5.078125 10.003906 8.972656 10.003906 13.753906 C 10.003906 21.949219 17.597656 31.199219 17.921875 31.589844 C 18.175781 31.894531 18.5625 32.078125 18.976562 32.078125 C 19.390625 32.078125 19.777344 31.894531 20.03125 31.589844 C 20.355469 31.199219 27.949219 21.949219 27.949219 13.753906 C 27.949219 8.972656 23.921875 5.078125 18.976562 5.078125 Z M 18.976562 18.585938 C 16.21875 18.585938 13.976562 16.417969 13.976562 13.753906 C 13.976562 11.085938 16.21875 8.917969 18.976562 8.917969 C 21.734375 8.917969 23.976562 11.085938 23.976562 13.753906 C 23.976562 16.417969 21.734375 18.585938 18.976562 18.585938 Z M 18.976562 18.585938 " fill-opacity="1" fill-rule="nonzero"/></g><path fill="#000000" d="M 18.976562 11.53125 C 17.707031 11.53125 16.679688 12.523438 16.679688 13.753906 C 16.679688 14.972656 17.707031 15.972656 18.976562 15.972656 C 20.246094 15.972656 21.273438 14.972656 21.273438 13.753906 C 21.273438 12.523438 20.246094 11.53125 18.976562 11.53125 Z M 18.976562 11.53125 " fill-opacity="1" fill-rule="nonzero"/></svg>