<svg xmlns="http://www.w3.org/2000/svg" xmlns:xlink="http://www.w3.org/1999/xlink" width="50" zoomAndPan="magnify" viewBox="0 0 37.5 37.499999" height="50" preserveAspectRatio="xMidYMid meet" version="1.0"><defs><clipPath id="ba48eb7a7d"><path d="M 10 16 L 28 16 L 28 30.261719 L 10 30.261719 Z M 10 16 " clip-rule="nonzero"/></clipPath><clipPath id="d0e55a151c"><path d="M 7.011719 7.011719 L 30.261719 7.011719 L 30.261719 20 L 7.011719 20 Z M 7.011719 7.011719 " clip-rule="nonzero"/></clipPath></defs><g clip-path="url(#ba48eb7a7d)"><path fill="#000000" d="M 26.015625 20.636719 C 25.171875 20.636719 24.484375 21.320312 24.484375 22.167969 C 24.484375 21.320312 23.796875 20.636719 22.953125 20.636719 C 22.105469 20.636719 21.417969 21.320312 21.417969 22.167969 C 21.417969 21.320312 20.734375 20.636719 19.886719 20.636719 C 19.039062 20.636719 18.355469 21.320312 18.355469 22.167969 L 18.355469 17.945312 C 18.355469 17.097656 17.667969 16.414062 16.820312 16.414062 C 15.976562 16.414062 15.289062 17.097656 15.289062 17.945312 L 15.289062 24.183594 L 13.707031 22.566406 C 13.105469 21.949219 12.132812 21.902344 11.472656 22.457031 C 10.808594 23.011719 10.691406 23.988281 11.203125 24.6875 L 13.996094 28.5 C 14.808594 29.605469 16.101562 30.261719 17.476562 30.261719 L 23.234375 30.261719 C 25.617188 30.261719 27.550781 28.332031 27.550781 25.949219 L 27.550781 22.167969 C 27.550781 21.320312 26.863281 20.636719 26.015625 20.636719 Z M 26.015625 20.636719 " fill-opacity="1" fill-rule="nonzero"/></g><path fill="#000000" d="M 12.28125 11.097656 L 11.144531 11.097656 L 11.144531 13.371094 L 12.28125 13.371094 C 12.90625 13.371094 13.414062 12.859375 13.414062 12.234375 C 13.414062 11.609375 12.90625 11.097656 12.28125 11.097656 Z M 12.28125 11.097656 " fill-opacity="1" fill-rule="nonzero"/><g clip-path="url(#d0e55a151c)"><path fill="#000000" d="M 26.855469 7.011719 L 10.417969 7.011719 C 8.539062 7.011719 7.011719 8.539062 7.011719 10.417969 L 7.011719 15.867188 C 7.011719 17.746094 8.539062 19.273438 10.417969 19.273438 L 13.925781 19.273438 L 13.925781 17.945312 C 13.925781 16.582031 14.871094 15.4375 16.140625 15.132812 L 16.140625 12.234375 C 16.140625 10.859375 17.261719 9.738281 18.636719 9.738281 C 20.015625 9.738281 21.136719 10.859375 21.136719 12.234375 L 21.136719 15.867188 C 21.136719 16.242188 20.832031 16.546875 20.453125 16.546875 C 20.078125 16.546875 19.773438 16.242188 19.773438 15.867188 L 19.773438 14.277344 L 17.503906 14.277344 L 17.503906 15.132812 C 18.769531 15.4375 19.714844 16.582031 19.714844 17.945312 L 19.714844 19.273438 L 26.855469 19.273438 C 28.734375 19.273438 30.261719 17.746094 30.261719 15.867188 L 30.261719 10.417969 C 30.261719 8.539062 28.734375 7.011719 26.855469 7.011719 Z M 12.28125 14.730469 L 11.144531 14.730469 L 11.144531 15.867188 C 11.144531 16.242188 10.839844 16.546875 10.464844 16.546875 C 10.085938 16.546875 9.78125 16.242188 9.78125 15.867188 L 9.78125 10.417969 C 9.78125 10.042969 10.085938 9.738281 10.464844 9.738281 L 12.28125 9.738281 C 13.65625 9.738281 14.777344 10.859375 14.777344 12.234375 C 14.777344 13.613281 13.65625 14.730469 12.28125 14.730469 Z M 27.402344 10.757812 L 25.675781 13.777344 L 25.675781 15.867188 C 25.675781 16.242188 25.371094 16.546875 24.996094 16.546875 C 24.617188 16.546875 24.3125 16.242188 24.3125 15.867188 L 24.3125 13.777344 L 22.585938 10.757812 C 22.402344 10.429688 22.515625 10.011719 22.839844 9.828125 C 23.167969 9.640625 23.582031 9.753906 23.769531 10.082031 L 24.996094 12.222656 L 26.21875 10.082031 C 26.40625 9.753906 26.824219 9.640625 27.148438 9.828125 C 27.476562 10.011719 27.589844 10.429688 27.402344 10.757812 Z M 27.402344 10.757812 " fill-opacity="1" fill-rule="nonzero"/></g><path fill="#000000" d="M 19.773438 12.234375 C 19.773438 11.609375 19.261719 11.097656 18.636719 11.097656 C 18.011719 11.097656 17.503906 11.609375 17.503906 12.234375 L 17.503906 12.914062 L 19.773438 12.914062 Z M 19.773438 12.234375 " fill-opacity="1" fill-rule="nonzero"/></svg>